# xmcd
# Copyright (C) 1995-1998 Ti Kan
#
# Track frame offsets:
#       150
#       15689
#       32509
#       49899
#       64470
#       81704
#       102709
#       117599
#       138159
#       151527
#       165955
#
# Disc length: 2524 seconds
#
# Revision: 0
# Processed by: cddbd v1.5.2PL0 Copyright (c) Steve Scherf et al.
# Submitted via: CD-Import v1.0
#
DISCID=9009da0b
DTITLE=Blood Red Shoes - Box Of Secrets
DYEAR=2008
DGENRE=
TTITLE0=Doesn't Matter Much
TTITLE1=You Bring Me Down
TTITLE2=Try Harder
TTITLE3=Say Something, Say Anything
TTITLE4=I Wish I Was Someone Better
TTITLE5=Take The Weight
TTITLE6=Adhd
TTITLE7=This Is Not For You
TTITLE8=It's Getting Boring By The Sea
TTITLE9=Forgive Nothing
TTITLE10=Hope You're Holding Up
EXTD=
EXTT0=
EXTT1=
EXTT2=
EXTT3=
EXTT4=
EXTT5=
EXTT6=
EXTT7=
EXTT8=
EXTT9=
EXTT10=
PLAYORDER=
